<mxfile host="Electron" modified="2024-05-06T02:39:22.251Z" agent="Mozilla/5.0 (Macintosh; Intel Mac OS X 10_15_7) AppleWebKit/537.36 (KHTML, like Gecko) draw.io/22.1.2 Chrome/114.0.5735.289 Electron/25.9.4 Safari/537.36" etag="fyaTj4Z0KY4JP4i-__NY" version="22.1.2" type="device">
  <diagram name="Page-1" id="7IYaMhxcsai9a5iwXlWS">
    <mxGraphModel dx="1026" dy="659" grid="1" gridSize="10" guides="1" tooltips="1" connect="1" arrows="1" fold="1" page="1" pageScale="1" pageWidth="850" pageHeight="1100" math="0" shadow="0">
      <root>
        <mxCell id="0" />
        <mxCell id="1" parent="0" />
        <mxCell id="5_UqjiYRm29rWh676Nk0-3" style="edgeStyle=orthogonalEdgeStyle;rounded=0;orthogonalLoop=1;jettySize=auto;html=1;exitX=0.5;exitY=1;exitDx=0;exitDy=0;" edge="1" parent="1" source="5_UqjiYRm29rWh676Nk0-1" target="5_UqjiYRm29rWh676Nk0-2">
          <mxGeometry relative="1" as="geometry" />
        </mxCell>
        <mxCell id="5_UqjiYRm29rWh676Nk0-1" value="NEW" style="rounded=1;whiteSpace=wrap;html=1;fillColor=#d5e8d4;strokeColor=#82b366;" vertex="1" parent="1">
          <mxGeometry x="240" y="260" width="140" height="50" as="geometry" />
        </mxCell>
        <mxCell id="5_UqjiYRm29rWh676Nk0-5" value="" style="edgeStyle=orthogonalEdgeStyle;rounded=0;orthogonalLoop=1;jettySize=auto;html=1;" edge="1" parent="1" source="5_UqjiYRm29rWh676Nk0-2" target="5_UqjiYRm29rWh676Nk0-4">
          <mxGeometry relative="1" as="geometry" />
        </mxCell>
        <mxCell id="5_UqjiYRm29rWh676Nk0-11" value="" style="edgeStyle=orthogonalEdgeStyle;rounded=0;orthogonalLoop=1;jettySize=auto;html=1;" edge="1" parent="1" source="5_UqjiYRm29rWh676Nk0-2" target="5_UqjiYRm29rWh676Nk0-8">
          <mxGeometry relative="1" as="geometry" />
        </mxCell>
        <mxCell id="5_UqjiYRm29rWh676Nk0-2" value="ACTIVE" style="rounded=1;whiteSpace=wrap;html=1;fillColor=#d5e8d4;strokeColor=#82b366;" vertex="1" parent="1">
          <mxGeometry x="240" y="360" width="140" height="50" as="geometry" />
        </mxCell>
        <mxCell id="5_UqjiYRm29rWh676Nk0-7" value="" style="edgeStyle=orthogonalEdgeStyle;rounded=0;orthogonalLoop=1;jettySize=auto;html=1;" edge="1" parent="1" source="5_UqjiYRm29rWh676Nk0-4" target="5_UqjiYRm29rWh676Nk0-6">
          <mxGeometry relative="1" as="geometry" />
        </mxCell>
        <mxCell id="5_UqjiYRm29rWh676Nk0-12" value="" style="edgeStyle=orthogonalEdgeStyle;rounded=0;orthogonalLoop=1;jettySize=auto;html=1;" edge="1" parent="1" source="5_UqjiYRm29rWh676Nk0-4" target="5_UqjiYRm29rWh676Nk0-8">
          <mxGeometry relative="1" as="geometry" />
        </mxCell>
        <mxCell id="5_UqjiYRm29rWh676Nk0-4" value="COMPLETING" style="rounded=1;whiteSpace=wrap;html=1;fillColor=#fff2cc;strokeColor=#d6b656;" vertex="1" parent="1">
          <mxGeometry x="240" y="460" width="140" height="50" as="geometry" />
        </mxCell>
        <mxCell id="5_UqjiYRm29rWh676Nk0-6" value="COMPLETED" style="rounded=1;whiteSpace=wrap;html=1;fillColor=#d5e8d4;strokeColor=#82b366;" vertex="1" parent="1">
          <mxGeometry x="240" y="560" width="140" height="50" as="geometry" />
        </mxCell>
        <mxCell id="5_UqjiYRm29rWh676Nk0-10" value="" style="edgeStyle=orthogonalEdgeStyle;rounded=0;orthogonalLoop=1;jettySize=auto;html=1;" edge="1" parent="1" source="5_UqjiYRm29rWh676Nk0-8" target="5_UqjiYRm29rWh676Nk0-9">
          <mxGeometry relative="1" as="geometry" />
        </mxCell>
        <mxCell id="5_UqjiYRm29rWh676Nk0-8" value="CANCELING" style="rounded=1;whiteSpace=wrap;html=1;fillColor=#fff2cc;strokeColor=#d6b656;" vertex="1" parent="1">
          <mxGeometry x="530" y="410" width="140" height="50" as="geometry" />
        </mxCell>
        <mxCell id="5_UqjiYRm29rWh676Nk0-9" value="CANCELED" style="rounded=1;whiteSpace=wrap;html=1;fillColor=#f8cecc;strokeColor=#b85450;" vertex="1" parent="1">
          <mxGeometry x="720" y="410" width="140" height="50" as="geometry" />
        </mxCell>
        <mxCell id="5_UqjiYRm29rWh676Nk0-13" value="cancel/exception" style="text;html=1;align=center;verticalAlign=middle;resizable=0;points=[];autosize=1;strokeColor=none;fillColor=none;fontSize=13;" vertex="1" parent="1">
          <mxGeometry x="344" y="420" width="120" height="30" as="geometry" />
        </mxCell>
      </root>
    </mxGraphModel>
  </diagram>
</mxfile>
